<svg xmlns="http://www.w3.org/2000/svg" viewBox="0 0 188 250" width="188" height="250">
	<style>
		tspan { white-space:pre }
		.shp0 { fill: #b0000b } 
		.shp1 { fill: #000000 } 
	</style>
	<g >
		<path class="shp0" d="M186.63 0.75C186.55 0.89 185.9 1.45 185.17 1.98C184.44 2.52 183.62 3.18 183.34 3.43C183.07 3.69 181.48 5.02 179.82 6.38C178.16 7.74 176.57 9.04 176.3 9.27C176.02 9.5 175.23 10.14 174.54 10.69C173.84 11.24 173.22 11.76 173.15 11.83C173.08 11.9 172.12 12.69 171.01 13.59C169.9 14.48 168.94 15.28 168.87 15.35C168.8 15.42 168.18 15.93 167.49 16.48C166.8 17.03 166.11 17.59 165.96 17.73C165.81 17.87 164.3 19.11 162.59 20.5C160.89 21.88 158.74 23.64 157.82 24.4C156.9 25.16 155.64 26.2 155.02 26.7C154.4 27.21 152.71 28.61 151.26 29.81C149.8 31.01 148.39 32.17 148.11 32.4C147.83 32.63 147.04 33.28 146.35 33.83C145.66 34.38 145.03 34.89 144.96 34.97C144.89 35.04 143.93 35.83 142.82 36.73C141.72 37.62 140.75 38.42 140.69 38.49C140.62 38.56 139.99 39.07 139.3 39.62C138.61 40.17 137.99 40.68 137.92 40.76C137.85 40.84 136.62 41.86 135.18 43.02C133.74 44.19 132.08 45.54 131.49 46.03C130.89 46.51 128.16 48.75 125.41 51.01C122.67 53.27 120.2 55.3 119.92 55.54C119.65 55.77 118.85 56.41 118.16 56.97C117.47 57.52 116.73 58.13 116.53 58.33C116.32 58.53 115.35 59.32 114.39 60.09C113.42 60.86 112.57 61.55 112.5 61.62C112.43 61.7 111.47 62.5 110.36 63.41C109.25 64.32 107.66 65.62 106.82 66.3C105.98 66.97 104.56 68.14 103.67 68.88C102.78 69.62 101.6 70.6 101.05 71.05C100.49 71.51 98.91 72.8 97.52 73.93C96.14 75.06 94.28 76.57 93.4 77.29C92.52 78.01 91.67 78.71 91.51 78.85C91.36 78.99 90.33 79.84 89.22 80.74C88.11 81.64 87.15 82.43 87.08 82.5C87.01 82.58 85.64 83.71 84.03 85.02C82.43 86.33 80 88.3 78.65 89.41C77.29 90.52 76.05 91.54 75.9 91.68C75.75 91.82 75.06 92.39 74.37 92.94C73.68 93.49 73.05 94 72.99 94.08C72.92 94.16 71.9 95 70.72 95.94C69.54 96.89 68.08 98.08 67.47 98.57C66.86 99.07 65.83 99.92 65.18 100.48C64.53 101.03 63.78 101.66 63.52 101.87C63.26 102.07 62.31 102.85 61.41 103.59C60.51 104.33 59.32 105.31 58.77 105.76C58.21 106.21 56.63 107.51 55.24 108.64C53.86 109.77 51.66 111.57 50.36 112.63C49.06 113.69 47.48 115 46.84 115.53C46.2 116.06 45.45 116.69 45.18 116.92C44.9 117.15 43.5 118.3 42.07 119.47C40.65 120.65 39.12 121.89 38.68 122.23C38.24 122.58 37.08 123.53 36.12 124.34C35.15 125.15 34.13 126 33.85 126.22C33.57 126.45 32.78 127.09 32.09 127.64C31.4 128.19 30.77 128.71 30.7 128.78C30.63 128.85 29.67 129.65 28.56 130.54C27.46 131.44 26.49 132.23 26.43 132.3C26.36 132.38 24.99 133.51 23.38 134.82C21.78 136.13 19.7 137.82 18.76 138.58C17.82 139.34 16.92 140.08 16.77 140.22C16.61 140.36 15.58 141.21 14.47 142.1C13.36 143 12 144.12 11.43 144.61C10.87 145.1 9.51 146.23 8.41 147.12C7.31 148 6.27 148.91 6.1 149.13C5.85 149.44 5.78 153.11 5.79 166.25C5.79 175.66 5.89 183.14 6.02 183.35C6.15 183.56 6.4 183.65 6.58 183.56C6.77 183.47 8.11 182.41 9.56 181.21C11.02 180.02 12.43 178.85 12.71 178.62C12.99 178.38 13.78 177.74 14.46 177.19C15.15 176.63 15.99 175.96 16.32 175.68C16.66 175.4 17.06 175.06 17.21 174.92C17.36 174.78 18.06 174.21 18.75 173.66C19.44 173.11 20.06 172.6 20.13 172.53C20.2 172.45 20.83 171.94 21.52 171.39C22.21 170.85 22.9 170.28 23.06 170.15C23.21 170.01 24.11 169.27 25.06 168.51C26 167.75 27.23 166.73 27.79 166.24C28.36 165.75 29.38 164.91 30.07 164.36C30.77 163.82 31.39 163.31 31.46 163.23C31.53 163.15 32.94 161.97 34.61 160.62C36.27 159.26 37.85 157.96 38.13 157.73C38.41 157.5 39.2 156.87 39.89 156.31C40.58 155.76 41.21 155.25 41.27 155.17C41.34 155.1 42.31 154.31 43.41 153.42C44.52 152.53 45.83 151.45 46.33 151.04C46.82 150.62 47.5 150.05 47.84 149.77C48.17 149.49 50.92 147.23 53.95 144.74C56.97 142.25 59.81 139.93 60.25 139.59C60.69 139.24 62.12 138.07 63.43 136.98C64.74 135.9 66.04 134.82 66.32 134.59C66.59 134.37 67.73 133.45 68.83 132.55C69.94 131.65 71.25 130.58 71.74 130.16C72.24 129.74 72.98 129.12 73.38 128.78C73.79 128.44 75.02 127.43 76.13 126.54C77.24 125.65 79.39 123.88 80.91 122.61C82.44 121.35 85.38 118.92 87.46 117.22C89.53 115.52 91.68 113.76 92.24 113.31C92.79 112.85 95.34 110.76 97.9 108.67C100.46 106.57 103.28 104.26 104.16 103.55C105.05 102.83 106.59 101.56 107.58 100.73C108.58 99.9 109.89 98.81 110.5 98.3C111.12 97.8 112.75 96.46 114.13 95.33C115.52 94.2 116.88 93.08 117.15 92.85C117.43 92.62 118.22 91.98 118.91 91.42C119.6 90.87 120.45 90.18 120.8 89.88C121.15 89.58 121.96 88.9 122.59 88.37C123.23 87.84 123.97 87.23 124.23 87.01C124.49 86.8 126.06 85.52 127.72 84.16C129.39 82.8 131.25 81.28 131.86 80.77C132.47 80.27 133.67 79.29 134.53 78.6C135.38 77.9 139.02 74.92 142.6 71.97C146.18 69.02 149.34 66.41 149.62 66.18C149.9 65.95 151.48 64.64 153.14 63.29C154.8 61.93 156.39 60.63 156.67 60.4C156.94 60.17 157.74 59.53 158.43 58.98C159.12 58.43 159.81 57.86 159.97 57.72C160.12 57.58 161.02 56.85 161.96 56.09C162.91 55.33 164.08 54.35 164.58 53.92C165.07 53.49 169.1 50.17 173.53 46.54C177.96 42.91 181.81 39.76 182.09 39.53C182.36 39.3 183.15 38.66 183.84 38.1C184.53 37.55 185.43 36.81 185.84 36.47C186.25 36.12 186.85 35.59 187.17 35.27L187.75 34.71C187.76 4.7 187.69 1.06 187.44 0.81C187.26 0.64 187.04 0.5 186.94 0.5C186.85 0.5 186.7 0.62 186.63 0.75Z" />
		<path fill-rule="evenodd" class="shp1" d="M23.25 31.12C23.4 31.21 24.98 32.45 26.74 33.87C28.51 35.3 29.94 36.61 29.94 36.78C29.93 36.96 28.09 38.59 21.77 43.75L20.76 42.91C20.21 42.46 18.62 41.2 14.72 38.15L14.6 41.9C14.53 43.96 14.5 52.75 14.6 77.21L16.93 79.12C18.21 80.17 19.39 80.96 19.57 80.88C19.74 80.8 22.26 78.78 30.45 72.06L30.48 44.89L32.51 43.26C33.62 42.36 35.58 40.78 36.85 39.74C38.12 38.7 41.06 36.3 43.37 34.39C47.11 31.31 47.61 30.97 48.01 31.27C48.25 31.46 50.23 33.07 52.42 34.86C54.61 36.64 56.42 38.1 56.44 38.1C56.47 38.1 56.55 46.98 56.75 77.53L63.67 71.93L63.65 45.15L71.88 38.36C76.41 34.62 80.32 31.42 80.58 31.25C80.99 30.97 81.49 31.3 84.88 34.1C86.99 35.83 88.97 37.53 89.85 38.48L89.85 57.34L89.28 57.95C88.97 58.28 85.21 61.42 80.92 64.93C76.64 68.43 72.98 71.42 72.79 71.55C72.52 71.75 72.46 73.09 72.48 84.26L68.33 87.65C66.05 89.52 64.06 90.99 63.93 90.92C63.77 90.84 63.68 89.31 63.69 83.38L66.79 79.23C68.49 76.94 70.13 74.71 70.43 74.26C70.73 73.81 70.92 73.44 70.85 73.44C70.78 73.44 69.96 74.03 69.02 74.75C68.09 75.48 63.47 79.23 58.77 83.09C54.06 86.96 49.76 90.5 49.2 90.97C48.65 91.43 48.05 91.81 47.88 91.81C47.63 91.8 47.55 89.1 47.5 79.31C47.46 71.27 47.35 66.78 47.19 66.72C47.05 66.67 45.21 68.04 43.1 69.78C40.99 71.52 39.26 73.08 39.25 73.25C39.25 73.42 39.22 76.17 39.14 85.12L35.05 88.46C32.8 90.3 30.84 91.74 30.7 91.68C30.55 91.6 30.45 89.96 30.45 83.5L32.79 80.67C34.08 79.12 35.67 77.13 36.32 76.27C36.97 75.41 37.44 74.7 37.37 74.7C37.3 74.7 36.71 75.11 36.05 75.61C35.39 76.11 30.63 79.99 25.46 84.22C20.29 88.46 15.9 91.93 15.7 91.93C15.5 91.93 13.25 90.23 6.05 84.38L6.04 56.34L9.01 52.38C10.64 50.2 12.22 47.99 12.53 47.47C12.84 46.95 13.03 46.53 12.96 46.53C12.89 46.53 12.35 46.9 11.77 47.34C11.18 47.79 8.88 49.64 6.67 51.45C4.45 53.26 2.5 54.81 2.33 54.91C2.1 55.03 2.06 54.93 2.19 54.51C2.28 54.2 3.16 51.94 5.91 45.03L14.44 38C19.13 34.13 23.1 31.04 23.25 31.12ZM39.51 64.26C39.65 64.33 41.52 62.94 43.67 61.18L47.57 57.97L47.57 44.52C41.42 39.63 39.55 38.21 39.45 38.22C39.35 38.22 39.26 44.06 39.26 51.18C39.26 59.57 39.35 64.18 39.51 64.26ZM72.73 64.13C72.87 64.13 74.74 62.69 76.9 60.93L80.81 57.72L80.81 44.64C74.84 40 73 38.54 72.86 38.41C72.68 38.25 72.58 42.36 72.54 51.15C72.5 59.68 72.57 64.13 72.73 64.13ZM30.96 37.74C31.17 37.73 31.34 37.89 31.34 38.08C31.33 38.28 29.61 39.87 27.5 41.61C25.38 43.35 23.49 44.77 23.28 44.77C23.07 44.77 22.93 44.6 22.97 44.4C23 44.19 24.73 42.61 26.8 40.89C28.88 39.17 30.75 37.75 30.96 37.74ZM90.5 38.98C90.56 38.98 90.8 39.05 91.04 39.14C91.44 39.28 91.47 39.98 91.36 58.85L74.37 72.82L74.12 85.35L69.27 89.33C66.61 91.52 64.32 93.25 64.18 93.18C64.04 93.11 63.93 92.92 63.94 92.74C63.94 92.57 65.98 90.79 72.97 85.14L72.99 72.69L90.1 58.6L90.08 49.48C90.07 44.47 90.14 40.06 90.23 39.68C90.32 39.3 90.44 38.98 90.5 38.98ZM57.74 39.31C57.93 39.38 58.03 44.88 58.07 57.24C58.1 68.5 58.03 75.19 57.88 75.39C57.74 75.56 57.52 75.65 57.38 75.58C57.22 75.5 57.12 69.18 57.09 57.51C57.06 47.64 57.14 39.49 57.26 39.4C57.38 39.3 57.59 39.27 57.74 39.31ZM15.96 40.4C16.29 40.53 16.33 42.69 16.29 58.69C16.24 74.63 16.19 76.84 15.86 76.84C15.52 76.84 15.47 74.64 15.41 58.85C15.38 48.96 15.4 40.73 15.46 40.56C15.52 40.39 15.75 40.32 15.96 40.4ZM40.64 40.41C40.94 40.53 41 42.26 41.02 51.27C41.04 60.66 41 62.04 40.66 62.31C40.34 62.57 40.24 62.56 40.14 62.25C40.07 62.04 40 57.08 39.97 51.22C39.95 45.37 40.01 40.51 40.11 40.43C40.21 40.34 40.45 40.34 40.64 40.41ZM73.45 40.24C73.54 40.23 73.76 40.38 73.93 40.55C74.18 40.8 74.25 43.23 74.25 51.37C74.24 61.04 74.21 61.9 73.8 62.28C73.39 62.67 73.35 62.66 73.19 62.22C73.1 61.96 73.01 57.08 73 51.37C72.99 45.66 73.05 40.83 73.13 40.62C73.21 40.41 73.36 40.24 73.45 40.24ZM187.31 42.92C187.46 42.99 187.54 49.37 187.5 76.33L156.11 102.11C138.85 116.29 119.34 132.31 112.76 137.71C106.18 143.11 96.6 150.97 91.48 155.18C86.36 159.38 77.47 166.69 71.73 171.41C65.98 176.13 54.54 185.52 46.31 192.28C38.07 199.03 30.48 205.26 29.45 206.11C28.41 206.96 27.44 207.73 27.31 207.83C27.17 207.92 22.52 204.28 16.99 199.74C11.45 195.21 6.9 191.33 6.87 191.13C6.84 190.93 8.03 189.79 9.51 188.6C10.99 187.4 18.72 181.07 26.68 174.53C34.64 167.99 46.13 158.55 52.22 153.55C58.31 148.56 70.94 138.19 80.28 130.51C89.63 122.84 102.65 112.14 109.23 106.74C115.8 101.35 127.86 91.44 136.03 84.74C144.2 78.03 156.59 67.85 163.58 62.12C170.56 56.38 178.7 49.69 181.67 47.24C184.64 44.8 187.18 42.85 187.31 42.92ZM7.94 51.81C7.99 51.81 7.96 51.95 7.88 52.13C7.79 52.3 7.37 52.88 6.94 53.43C6.52 53.97 4.92 55.41 3.4 56.64C1.87 57.87 0.6 58.84 0.56 58.8C0.52 58.76 0.63 58.4 0.81 57.99C1 57.57 2.55 56.11 4.49 54.54C6.33 53.04 7.89 51.81 7.94 51.81Z" />
		<path class="shp0" d="M5.91 70.3C5.91 77.9 5.94 81.07 5.98 77.34C6.02 73.6 6.02 67.38 5.98 63.51C5.94 59.63 5.91 62.69 5.91 70.3Z" />
		<path class="shp1" d="M42.97 71.12L40.01 73.57L40.02 85.76C32.27 92.04 30.81 93.38 30.77 93.76C30.73 94.07 30.8 94.29 30.92 94.25C31.04 94.22 33.36 92.38 36.07 90.17L41.01 86.14L41.02 73.94C45.31 70.44 46.52 69.28 46.47 69.1C46.42 68.93 46.28 68.76 46.16 68.73C46.03 68.7 44.6 69.78 42.97 71.12ZM64.66 79.55C64.31 79.85 60.37 83.1 55.91 86.77C51.45 90.44 47.8 93.49 47.81 93.56C47.82 93.63 47.91 93.82 48.01 93.99C48.13 94.2 50.76 92.2 56 87.89C60.85 83.91 64.15 81.01 64.72 80.23C65.23 79.54 65.57 78.98 65.48 78.98C65.39 78.99 65.02 79.24 64.66 79.55ZM28.55 83.06C27.29 84.06 24.15 86.63 21.56 88.77C18.98 90.91 16.86 92.8 16.86 92.98C16.86 93.16 17 93.31 17.18 93.32C17.35 93.32 19.76 91.49 22.52 89.23C25.29 86.98 28.07 84.63 28.7 84.01C29.32 83.38 30.09 82.5 30.39 82.05C30.7 81.61 30.92 81.24 30.89 81.24C30.86 81.24 29.8 82.06 28.55 83.06Z" />
		<path class="shp0" d="M164.97 102.2C163.59 103.33 161.04 105.43 159.31 106.86C157.58 108.29 155.94 109.65 155.66 109.88C155.38 110.11 153.8 111.41 152.14 112.77C150.48 114.13 148.89 115.43 148.61 115.66C148.34 115.88 147.2 116.8 146.1 117.7C144.99 118.6 143.68 119.67 143.19 120.09C142.7 120.51 141.74 121.3 141.07 121.86C140.4 122.41 139.09 123.48 138.16 124.25C137.22 125.01 134.11 127.55 131.24 129.9C128.36 132.26 125.49 134.62 124.85 135.15C124.22 135.68 123.47 136.3 123.19 136.53C122.92 136.76 121.78 137.68 120.68 138.58C119.57 139.47 118.26 140.55 117.77 140.97C117.27 141.38 116.59 141.95 116.26 142.23C115.92 142.51 115.08 143.18 114.39 143.74C113.7 144.29 112.86 144.97 112.53 145.25C112.19 145.52 111.38 146.2 110.74 146.76C110.1 147.31 108.52 148.61 107.23 149.65C105.94 150.69 104.76 151.65 104.6 151.79C104.45 151.93 102.96 153.16 101.3 154.52C99.64 155.88 97.83 157.37 97.27 157.82C96.72 158.28 95.13 159.57 93.75 160.7C92.36 161.83 90.51 163.35 89.63 164.06C88.74 164.78 87.89 165.48 87.74 165.63C87.58 165.77 86.49 166.68 85.32 167.64C84.14 168.6 82.44 170 81.54 170.74C80.64 171.48 79.68 172.28 79.4 172.5C79.13 172.73 77.99 173.65 76.89 174.54C75.78 175.44 74.47 176.51 73.97 176.93C73.48 177.35 72.8 177.92 72.46 178.19C72.13 178.47 71.29 179.15 70.59 179.7C69.9 180.26 69.28 180.77 69.21 180.85C69.14 180.93 67.92 181.95 66.49 183.11C65.06 184.28 63.4 185.63 62.8 186.12C62.2 186.6 60.87 187.67 59.86 188.49C58.84 189.32 57.95 190.06 57.88 190.15C57.82 190.23 56.4 191.41 54.74 192.76C53.08 194.11 51.49 195.41 51.22 195.64C50.94 195.86 49.81 196.79 48.7 197.69C47.59 198.59 46.63 199.38 46.56 199.46C46.49 199.53 45.87 200.04 45.18 200.59C44.49 201.14 43.64 201.83 43.29 202.13C42.94 202.43 40.56 204.39 38 206.49C35.44 208.59 33.04 210.55 32.66 210.85C32.28 211.15 31.96 211.56 31.96 211.77C31.95 211.98 32.49 212.61 33.15 213.18C33.81 213.74 35.32 214.98 36.49 215.94C37.67 216.89 38.86 217.86 39.14 218.1C39.41 218.33 42.41 220.79 45.8 223.57C49.2 226.34 52.11 228.62 52.29 228.62C52.46 228.62 53.93 227.53 55.56 226.21C57.18 224.88 58.74 223.61 59.02 223.38C59.29 223.15 60.43 222.23 61.53 221.33C62.64 220.43 63.6 219.63 63.67 219.55C63.74 219.47 65.16 218.3 66.82 216.95C68.48 215.6 70.07 214.3 70.34 214.07C70.62 213.84 72.02 212.69 73.45 211.51C74.89 210.34 76.49 209.04 77.01 208.63C77.52 208.21 81.84 204.66 86.6 200.74C91.36 196.82 95.48 193.43 95.76 193.2C96.04 192.97 96.83 192.33 97.52 191.78C98.22 191.22 98.84 190.71 98.91 190.64C98.98 190.56 99.94 189.77 101.05 188.88C102.15 187.99 103.46 186.92 103.96 186.5C104.45 186.08 105.13 185.51 105.47 185.24C105.81 184.96 106.99 184 108.09 183.1C109.2 182.2 110.16 181.4 110.23 181.32C110.3 181.24 111.72 180.07 113.38 178.72C115.04 177.37 116.63 176.07 116.9 175.84C117.18 175.6 118.76 174.3 120.43 172.94C122.09 171.59 123.67 170.29 123.95 170.05C124.23 169.82 125.63 168.67 127.06 167.5C128.5 166.33 130.16 164.97 130.76 164.49C131.36 164 134.09 161.76 136.83 159.5C139.57 157.24 142.04 155.2 142.32 154.97C142.6 154.74 144.18 153.44 145.84 152.07C147.51 150.71 149.09 149.41 149.37 149.18C149.65 148.95 151.12 147.75 152.64 146.5C154.16 145.26 155.95 143.79 156.62 143.23C157.29 142.68 158.33 141.83 158.93 141.35C159.54 140.86 161.82 138.99 164.01 137.18C166.2 135.37 168.08 133.7 168.18 133.47C168.28 133.24 168.37 125.8 168.37 116.95C168.37 108.1 168.31 100.69 168.24 100.48C168.17 100.27 167.98 100.11 167.8 100.12C167.63 100.12 166.36 101.06 164.97 102.2Z" />
		<path class="shp1" d="M144.71 160.39C141.87 162.72 133.78 169.37 126.72 175.17C119.66 180.97 102.16 195.33 87.83 207.09C73.51 218.85 60.77 229.32 59.52 230.35C58.27 231.39 57.26 232.37 57.26 232.54C57.26 232.7 61.5 236.32 66.69 240.57C71.88 244.82 76.47 248.62 76.89 249.02C77.3 249.42 77.78 249.74 77.96 249.74C78.13 249.75 80.22 248.13 82.61 246.16C85 244.18 89.78 240.24 93.24 237.4C96.71 234.56 102.42 229.86 105.95 226.96C109.48 224.06 120.57 214.96 130.6 206.73C140.62 198.51 149.14 191.46 149.54 191.08L150.25 190.39C150.22 164.57 150.13 156.86 150.04 156.61C149.89 156.22 149.05 156.82 144.71 160.39Z" />
	</g>
</svg>